# xmcd CD database file
#
# Track frame offsets:
#	150
#	63958
#	103600
#	161858
#	195173
#	235098
#
# Disc length: 3688 seconds
#
# Revision: 0
# Processed by: cddbd v1.5.1PL2 Copyright (c) Steve Scherf et al.
# Submitted via: CDex 1.51
#
DISCID=430e6606
DTITLE=さだまさし - さだまさしステージトーク大全噺歌集CD第 9集 1997〜1999 台風の中の「砂の祭典」
DYEAR=2005
DGENRE=Speech
TTITLE0=奥薬研に響くクマのうなり声
TTITLE1=灼熱の鳥取砂丘でビデオ撮り
TTITLE2=台風の中の「砂の祭典」
TTITLE3=亡き二人のカメラマンに捧ぐ
TTITLE4=異郷ロンドンで書き上げた小説
TTITLE5=憧れの人ポール・サイモンの音楽観
EXTD=YEAR: 2005
EXTT0=
EXTT1=
EXTT2=
EXTT3=
EXTT4=
EXTT5=
PLAYORDER=
